<?xml version="1.0" encoding="UTF-8"?>
<!DOCTYPE svg PUBLIC "-//W3C//DTD SVG 1.1//EN" "http://www.w3.org/Graphics/SVG/1.1/DTD/svg11.dtd">
<!-- Creator: CorelDRAW -->
<svg xmlns="http://www.w3.org/2000/svg" xml:space="preserve" width="215.9mm" height="279.4mm" style="shape-rendering:geometricPrecision; text-rendering:geometricPrecision; image-rendering:optimizeQuality; fill-rule:evenodd; clip-rule:evenodd"
viewBox="0 0 215.9 279.4">
 <defs>
  <style type="text/css">
   <![CDATA[
    .fil0 {fill:#1F1A17}
    .fil1 {fill:#DA251D}
    .fil2 {fill:#FFF500}
    .fil3 {fill:white}
   ]]>
  </style>
 </defs>
 <g id="Layer_x0020_1">
  <metadata id="CorelCorpID_0Corel-Layer"/>
  <g id="_146274056">
   <path id="_147552800" class="fil0" d="M63.2758 191.998c-8.698,-10.455 -14.8042,-24.4246 -14.8922,-40.5467 -0.1756,-26.7969 0.1758,-54.0769 0.1758,-81.0056l122.519 0.0439 0 65.9819c0,4.8761 -0.0441,10.8944 -0.0441,14.8042 0,15.9023 -4.3049,26.8407 -12.6076,38.4381 -23.2387,30.7065 -70.8579,31.1459 -95.1508,2.2842zm-50.9878 -62.0365c0,0.4596 -0.1838,0.873 -0.4596,1.1028 -0.3215,0.2756 -0.7351,0.4135 -1.1028,0.4135 -0.3675,0.0461 -0.781,-0.0919 -1.1028,-0.2757 -0.3215,-0.2296 -0.5514,-0.6432 -0.5514,-1.1487 -0.0459,-0.4595 0.138,-0.8731 0.4136,-1.1028 0.3217,-0.2758 0.6892,-0.4136 1.0569,-0.4136 0.3676,-0.0459 0.7812,0.0459 1.1028,0.2299 0.3217,0.2756 0.5514,0.6892 0.5514,1.1487l0.0919 0.0459zm8.3628 14.9797l-1.0567 0.1837 -0.4136 -1.4703 -0.4135 -0.3217 -8.8684 1.8839c-0.2297,0.046 -0.5054,0.092 -0.6892,0.138 -0.2298,0.0459 -0.4595,0.1837 -0.6433,0.1837 -0.3676,0.0919 -0.7353,0.2757 -1.0109,0.4136 -0.3217,0.1838 -0.6433,0.4595 -0.8731,0.7352 -0.4136,0.5054 -0.6892,1.1028 -0.7811,1.792 -0.0919,0.6893 -0.0919,1.3786 0.0459,2.1137 0.1379,0.6433 0.4136,1.3326 0.7811,1.93 0.3677,0.5973 0.8731,1.0108 1.4705,1.2865 0.3215,0.1838 0.6892,0.2757 1.0568,0.2757 0.3675,0.046 0.7352,0.092 1.1028,0 0.1838,-0.046 0.4596,-0.046 0.6433,-0.0919 0.2297,-0.046 0.5055,-0.0919 0.7352,-0.1378l8.6846 -1.838 0.3217 -0.5054 -0.0921 -1.4705 1.011 -0.2297 1.1028 5.1464 -1.0569 0.1837 -0.4594 -1.4243 -0.5054 -0.3677 -8.9145 1.884c-0.2756,0.046 -0.5514,0.1379 -0.781,0.1838 -0.2297,0.0459 -0.5514,0.0459 -0.7811,0.0919 -0.4596,0.0918 -1.011,0.0459 -1.4705,0 -0.5054,-0.046 -1.0568,-0.1838 -1.5164,-0.4136 -0.5514,-0.3216 -1.1028,-0.827 -1.4703,-1.3784 -0.4136,-0.6433 -0.7353,-1.3327 -0.965,-1.976 -0.0459,-0.2296 -0.1378,-0.4595 -0.1839,-0.6432 -0.0459,-0.2297 -0.1378,-0.5055 -0.1837,-0.6892 -0.0459,-0.1839 -0.0919,-0.4596 -0.1378,-0.6433 -0.046,-0.1839 -0.046,-0.5055 -0.0919,-0.7353 -0.0459,-0.7352 0,-1.4703 0.0919,-2.1597 0.1378,-0.6892 0.4136,-1.3325 0.7811,-1.8839 0.3676,-0.4136 0.7353,-0.7811 1.1946,-0.965 0.4136,-0.2296 0.9191,-0.5054 1.3327,-0.6432 0.2756,-0.046 0.5514,-0.0919 0.7811,-0.1378 0.2757,-0.046 0.5514,-0.1839 0.7353,-0.2299l9.1439 -1.9298 0.2299 -0.4595 -0.1839 -1.4245 1.0109 -0.2297 1.2865 5.9735zm-12.3145 15.9447l0.6433 1.3324 0.5514 0.2758 12.8661 -4.4112 0.1378 -0.5054 -0.4136 -1.5164 1.0109 -0.3217 1.5164 4.3652 -0.5973 0.1839 -9.282 12.2227 11.074 -3.8139 0.2297 -0.5514 -0.3216 -1.5164 1.0109 -0.3675 1.7002 4.9626 -1.011 0.3675 -0.6432 -1.2865 -0.5514 -0.3677 -1.3786 0.5055 -12.866 4.4112 -0.5054 -1.5623 0.3676 -0.5514 9.9252 -13.0497 -11.8551 4.0435 -0.2297 0.5974 0.2756 1.5164 -0.965 0.3215 -1.7001 -4.9626 1.0109 -0.3215zm6.7087 17.9663l0.8271 1.3326 0.4596 0.1379 0.0459 -0.046 12.1767 -6.2032 0.1379 -0.4595 -0.5974 -1.4245 0.9191 -0.4596 2.8488 5.5601 -0.919 0.4594 -0.827 -1.3784 -0.4596 -0.2299 -0.1378 0.0921 -12.1308 6.1572 -0.1379 0.5514 0.5973 1.4703 -0.873 0.4596 -2.8488 -5.56 0.9189 -0.4595zm20.5397 4.4112l-0.8731 0.5514 -0.919 -1.1487 -0.4135 -0.0919 -7.9953 10.7983 13.0039 -3.0787 0.1378 -0.4136 -0.7813 -1.3325 0.8731 -0.5973 2.757 4.1813 -0.919 0.5975 -1.0569 -1.1489 -1.9757 0.4136 -14.1067 3.2166 -0.9189 -1.4705 1.1487 -1.5622 8.5926 -11.7633 -0.5974 -1.4243 0.9191 -0.5514 3.1246 4.8246zm-5.3762 19.391l1.0569 0.9649 0.5514 0.0459 0.0459 0 10.0171 -9.3738 -0.0459 -0.5055 -0.8731 -1.0567 0.7812 -0.7353 8.0871 8.6846 -2.665 2.4812 -0.965 -1.0567 1.2866 -1.6082 0.0459 -0.5974 -3.9057 -4.1815 -4.6409 4.3653 2.757 2.9407 0.5514 0 1.5162 -1.0568 0.7813 0.8731 -4.0436 3.7679 -0.7812 -0.8731 1.1487 -1.4244 0.046 -0.5514 -2.757 -2.9409 -5.1004 4.7789 4.549 4.8707 0.5514 -0.0459 2.0677 -1.3786 0.8732 0.965 -2.9409 2.757 -8.7306 -9.3738 0.7353 -0.7352zm25.5022 3.4462c1.1488,0.9189 2.0678,2.0217 2.6652,3.2166 0.5973,1.1487 0.2756,2.5271 -0.8731,3.9516 -0.7811,1.011 -1.7461,1.5164 -2.6652,1.5164 -1.0107,-0.0461 -2.0676,-0.2758 -3.0785,-0.7353 0.7351,1.0569 1.0568,1.93 1.0109,2.5273 -0.0919,0.6433 -0.2758,1.3325 -0.5973,1.9299 -0.2299,0.3217 -0.4136,0.7812 -0.5974,1.1487 -0.1839,0.4136 -0.3676,0.965 -0.4136,1.4704 -0.0459,0.6433 0.046,1.2407 0.4136,1.6083 0.3675,0.4595 0.7352,0.8731 1.1947,1.2406 0,0 0.0459,0.046 0.0459,0.046 0,0 0.046,0.0459 0.046,0.0459l-0.5514 0.6894c-0.0919,-0.046 -0.2758,-0.138 -0.3217,-0.1839 -0.1379,-0.0919 -0.2757,-0.1838 -0.3675,-0.2757 -0.138,-0.1378 -0.3677,-0.2757 -0.5514,-0.3676 -0.138,-0.1378 -0.3677,-0.2756 -0.5055,-0.3677 -0.6433,-0.5514 -1.1028,-1.1487 -1.3326,-1.792 -0.2297,-0.6892 -0.1379,-1.6082 0.2757,-2.6651 0.2297,-0.4134 0.4136,-0.873 0.5514,-1.2406 0.1838,-0.3216 0.2757,-0.7811 0.3675,-1.0569 0.3677,-0.8729 0.4596,-1.7001 0.2758,-2.2056 -0.1378,-0.5054 -0.7811,-1.2865 -1.8379,-2.1137l-0.7353 -0.6892 -3.768 4.641 0.0921 0.5514 1.0107 1.0108 -0.6432 0.7812 -4.595 -3.722 0.6433 -0.781 1.1487 0.7351 0.5974 0.0459 0 -0.0459 8.6386 -10.6603 -0.1378 -0.5514 -1.0109 -0.9191 0.6432 -0.8272 4.9626 4.0437zm-6.8924 4.8248c0,0 0.046,0.0919 0.046,0.0919 0.0459,0.0459 0.1378,0.0919 0.1837,0.0919 0.1378,0.1378 0.3217,0.3215 0.4595,0.4136 0.1838,0.1378 0.3675,0.2296 0.5055,0.3675 0.7811,0.6432 1.7001,1.0568 2.5272,1.3326 0.8731,0.2297 1.8381,-0.0919 2.711,-1.0109l0.1378 -0.1838c0.3677,-0.4136 0.5975,-0.965 0.7813,-1.4704 0.1837,-0.5974 0.2297,-1.1947 0.0918,-1.792 -0.1378,-0.3218 -0.3217,-0.7353 -0.6432,-1.0569 -0.2758,-0.3217 -0.5514,-0.6894 -0.8731,-0.9191 -0.046,-0.0459 -0.0919,-0.0918 -0.1379,-0.1378 -0.0918,-0.0459 -0.1378,-0.0918 -0.1837,-0.1378l-1.1947 -0.965 -4.4112 5.3762zm6.4329 15.0716l2.0678 -3.8139 1.3325 0.7352 -1.1487 2.6191 0.0918 0.5974c0.2758,0.3217 0.5514,0.6433 0.9191,0.919 0.3217,0.3216 0.8272,0.6433 1.1947,0.873 0.8731,0.4595 1.7921,0.6894 2.6651,0.6894 0.919,-0.046 1.6542,-0.5055 2.2056,-1.4705 0.3676,-0.7351 0.4595,-1.5164 0.1837,-2.2515 -0.3675,-0.6892 -0.7811,-1.4705 -1.3325,-2.0678 -0.2296,-0.2756 -0.4595,-0.5974 -0.6892,-0.873 -0.2298,-0.2298 -0.4595,-0.5054 -0.6432,-0.6893 -0.5514,-0.7352 -0.965,-1.6542 -1.2867,-2.5731 -0.3216,-0.9191 -0.1838,-1.8841 0.3217,-2.757 0.7351,-1.3786 1.8379,-2.1597 3.3084,-2.2977 1.4243,-0.1378 2.8029,0.138 3.9976,0.8272 0.1378,0.0919 0.3217,0.1838 0.4595,0.2756 0.1837,0.0921 0.3677,0.2299 0.5055,0.3217 0.4595,0.3218 0.8729,0.6893 1.3324,1.0569 0.4136,0.3217 0.7813,0.7352 1.1488,1.0569l-1.8839 3.3543 -1.1028 -0.6433 0.7811 -2.2056c-0.0919,-0.4595 -0.3216,-0.8731 -0.5514,-1.2406 -0.2756,-0.3217 -0.6433,-0.6434 -1.0569,-0.8731 0,0 -0.0919,-0.0459 -0.0919,-0.0459 0,0 -0.0459,-0.046 -0.0459,-0.046 -0.7811,-0.3676 -1.6542,-0.4595 -2.4812,-0.3676 -0.8731,0.1378 -1.5623,0.5973 -1.9759,1.4245 -0.3677,0.5973 -0.4595,1.2406 -0.2756,1.7461 0.1837,0.5514 0.4593,1.1487 0.781,1.6542 0.0919,0.0918 0.2297,0.2756 0.3218,0.3676 0.0918,0.1378 0.1837,0.3216 0.2756,0.4135 0.1378,0.1839 0.3217,0.4135 0.4595,0.5514 0.0919,0.1839 0.2756,0.4135 0.4136,0.5973 0.6892,0.8272 1.1947,1.7462 1.6083,2.7111 0.4134,0.9649 0.3674,2.0218 -0.184,3.0327 -0.781,1.3785 -1.8838,2.1138 -3.1704,2.2516 -1.3786,0.1378 -2.757,-0.046 -3.9977,-0.5974 -0.1838,-0.0918 -0.3675,-0.1839 -0.5055,-0.2757 -0.1838,-0.0919 -0.4134,-0.1838 -0.5514,-0.2757 -0.1838,-0.0918 -0.3216,-0.1378 -0.4594,-0.2298 -0.1379,-0.0919 -0.2758,-0.2297 -0.4595,-0.3216 -0.4595,-0.2298 -0.9191,-0.5973 -1.3786,-0.965 -0.4136,-0.3217 -0.827,-0.781 -1.1487,-1.1487l0.0459 -0.0459zm12.3147 6.1572l1.4244 0.5974 0.4595 -0.2297 0.0459 0 5.7437 -12.4525 -0.1378 -0.4136 -1.3784 -0.7352 0.4595 -0.9649 5.6518 2.6651 -0.4595 0.919 -1.4705 -0.5973 -0.5054 0.1378 -0.0919 0.1378 -5.7437 12.3147 0.2297 0.5053 1.4245 0.8272 -0.4595 0.8731 -5.6518 -2.6192 0.4595 -0.965zm13.693 -11.028l13.0039 3.9977 -1.1487 3.676 -1.2866 -0.4136 0.3675 -2.2515 -0.2756 -0.5514 -3.6301 -1.1028 -0.1378 0.4595 -3.9517 13.0039 0.2756 0.4594 1.5164 0.6434 -0.2758 0.9648 -6.2032 -1.9298 0.3217 -0.965 1.6083 0.3677 0.5054 -0.2299 0.1379 -0.4134 3.9516 -13.0498 -3.5381 -1.0569 -0.5054 0.2756 -1.0569 2.0678 -1.2867 -0.4136 1.1028 -3.6759 0.5055 0.1378zm21.183 4.4112l0.6433 2.0219 4.3193 14.0147 1.4244 0.4136 -0.0919 1.0109 -5.6059 -0.4136 0.0919 -1.0109 1.5164 0 0.1837 -0.3677 -1.4243 -4.8246 -5.8817 -0.4136 -2.1137 4.5949 0.2298 0.3677 1.6082 0.2297 -0.046 1.0109 -4.8706 -0.3215 0.0919 -1.011 1.4244 -0.2298 0.919 -1.838 5.9276 -13.3254 1.6542 0.0918zm-4.2274 9.3279l4.9626 0.3677 -2.0678 -7.1223 -2.8948 6.7546zm13.5553 7.5818l-0.3217 -4.3653 1.5163 -0.0918 0.4596 2.8029 0.4134 0.4595c0.3677,0.1378 0.7812,0.2756 1.2408,0.3216 0.4593,0.0459 1.0107,0.0459 1.4703,0.0459 0.965,-0.0919 1.884,-0.3675 2.6192,-0.8729 0.7351,-0.5514 1.1028,-1.3327 1.0109,-2.4355 -0.046,-0.827 -0.4136,-1.5623 -1.0569,-1.9757 -0.6433,-0.4136 -1.4245,-0.7813 -2.2056,-1.011 -0.3676,-0.1378 -0.7351,-0.2757 -1.0568,-0.3676 -0.3218,-0.046 -0.6433,-0.1838 -0.9191,-0.2297 -0.873,-0.3217 -1.7461,-0.8731 -2.4812,-1.4705 -0.7813,-0.5973 -1.1947,-1.4704 -1.2866,-2.4812 -0.092,-1.5623 0.4135,-2.8031 1.5622,-3.676 1.1487,-0.9191 2.4354,-1.4245 3.8139,-1.5164 0.1839,-0.046 0.3676,-0.046 0.5514,-0.046 0.1839,0 0.4136,0 0.5973,0 0.5514,0 1.1028,0.0919 1.6542,0.1379 0.5514,0.0918 1.1028,0.2298 1.5623,0.2757l0.2758 3.8598 -1.2867 0.0919 -0.5514 -2.2975c-0.3216,-0.3217 -0.7811,-0.5514 -1.1487,-0.7353 -0.4135,-0.1378 -0.873,-0.1837 -1.3325,-0.1837 0,0 -0.0919,0 -0.0919,0 0,0 -0.0919,0.0459 -0.0919,0.0459 -0.8271,0.0919 -1.6542,0.4595 -2.2976,1.0109 -0.6433,0.5974 -0.9648,1.3786 -0.9189,2.2975 0.0919,0.6892 0.3216,1.2406 0.7811,1.6083 0.4136,0.3217 0.965,0.6892 1.5164,0.919 0.1837,0.046 0.3676,0.1378 0.5054,0.1838 0.1379,0.0459 0.3216,0.1378 0.4596,0.1837 0.1837,0.0921 0.4593,0.138 0.6432,0.2299 0.2297,0.0918 0.5055,0.1378 0.6893,0.2297 1.0109,0.3217 1.9759,0.8271 2.8488,1.4245 0.8731,0.5514 1.3786,1.4704 1.4705,2.6651 0.1378,1.5162 -0.4136,2.757 -1.4245,3.584 -1.1028,0.8731 -2.3434,1.4705 -3.6759,1.7001 -0.1839,0 -0.4136,0 -0.5974,0 -0.1839,0.046 -0.4136,0.0919 -0.5975,0.0919 -0.1837,0.0461 -0.3675,0.0461 -0.5053,0.0461 -0.1839,0 -0.3676,0 -0.5514,0 -0.5514,0.046 -1.1028,0 -1.6542,-0.092 -0.5514,-0.046 -1.1489,-0.1838 -1.6542,-0.3216l0.046 -0.0459zm24.4913 -20.7235l0.4135 0.965 -1.3785 0.6432 -0.1378 0.3677 8.9142 10.063 -0.3215 -13.3255 -0.3677 -0.2298 -1.5164 0.4595 -0.3675 -0.965 4.6868 -1.792 0.3677 0.965 -1.3326 0.827 -0.046 2.0219 0.2299 14.4283 -1.6083 0.6432 -1.3326 -1.4703 -9.6954 -10.8442 -1.4704 0.2758 -0.3677 -0.965 5.3303 -2.0678zm18.1502 9.3738l1.2866 -0.873 0.0918 -0.4595 0 -0.0459 -6.8465 -11.8552 -0.4595 -0.1378 -1.3784 0.7351 -0.5514 -0.9189 5.4221 -3.1246 0.5053 0.919 -1.3325 0.873 -0.1837 0.4595 0.0459 0.1378 6.8006 11.7633 0.5514 0.1378 1.4704 -0.6892 0.5055 0.873 -5.4221 3.1246 -0.5055 -0.919zm7.9493 -4.7328l1.1028 -0.919 0.1839 -0.5514 -0.0459 -0.046 -7.8576 -11.2119 -0.5514 0 -1.2406 0.7813 -0.5974 -0.8731 4.9167 -3.4463 0.5973 0.8732 -1.0568 0.8729 -0.1838 0.5055 0.2297 0.3676 7.8574 11.2118 4.5951 -3.2625 0.0919 -0.5514 -1.4245 -2.6651 1.1028 -0.7352 2.6192 3.722 -9.7874 6.8006 -0.5514 -0.873zm12.0389 -8.271l0.9191 -1.1948 0 -0.5973 -9.6037 -9.6035 -0.5053 0.0459 -1.1948 1.0569 -0.7352 -0.7813 3.2625 -3.2623 0.4595 0.4135 15.0256 3.0327 -8.271 -8.271 -0.5973 0 -1.2406 0.965 -0.7353 -0.7812 3.676 -3.6761 0.7811 0.7353 -0.8729 1.1488 -0.0919 0.6433 1.0569 1.0568 9.6034 9.6035 -1.1487 1.1487 -0.6892 -0.0918 -16.0825 -3.2166 8.8684 8.8685 0.5973 0 1.2406 -0.919 0.7351 0.6892 -3.7218 3.722 -0.7353 -0.7352zm13.3255 -13.6472l0.7812 -1.1946 0 -0.5514 -0.0459 -0.046 -10.9361 -8.225 -0.5055 0.1378 -0.9191 1.0568 -0.827 -0.6432 7.1682 -9.5118 2.8948 2.1597 -0.919 1.1946 -1.792 -1.0107 -0.5974 0.0459 -3.4002 4.595 5.0544 3.8138 2.4353 -3.2624 -0.1378 -0.5514 -1.2406 -1.2866 0.6892 -0.919 4.4112 3.3084 -0.6892 0.919 -1.6542 -0.8731 -0.5055 0.0919 -2.4352 3.2165 5.5599 4.1815 4.0435 -5.2843 -0.1378 -0.5514 -1.7001 -1.838 0.7351 -1.0109 3.2625 2.4353 -7.7196 10.201 -0.8731 -0.5974zm9.5577 -12.6822l0.5514 -1.4245 -0.138 -0.5514 -11.9009 -6.6168 -0.4596 0.2299 -0.8731 1.3325 -0.9189 -0.5514 2.2516 -4.0436 0.5054 0.2756 15.3014 -1.2406 -10.2469 -5.6518 -0.5514 0.1378 -0.9191 1.2866 -0.9189 -0.5055 2.5272 -4.5949 0.9191 0.5054 -0.5055 1.3325 0.0919 0.6434 1.2865 0.7352 11.9011 6.5708 -0.7811 1.4703 -0.6893 0.0461 -16.3581 1.3785 10.982 6.0654 0.5974 -0.1838 0.9189 -1.1947 0.8731 0.4594 -2.5273 4.5951 -0.9189 -0.5055zm9.3278 -16.9555l-4.0896 -1.6083 0.5514 -1.3784 2.757 0.7811 0.5514 -0.1379c0.3217,-0.2757 0.5973,-0.5973 0.8731,-1.0109 0.2756,-0.3676 0.5055,-0.8731 0.6892,-1.2865 0.3677,-0.9191 0.4596,-1.8381 0.3677,-2.757 -0.138,-0.8731 -0.7353,-1.5623 -1.7461,-1.9759 -0.7812,-0.3218 -1.5623,-0.2757 -2.2056,0.0918 -0.6894,0.4136 -1.3786,0.9191 -1.93,1.5624 -0.2297,0.2296 -0.5514,0.5054 -0.7811,0.781 -0.1839,0.2758 -0.4595,0.5055 -0.6434,0.7354 -0.6433,0.5973 -1.5162,1.1487 -2.3434,1.5623 -0.873,0.4593 -1.8839,0.4134 -2.8029,0.0459 -1.4705,-0.5514 -2.3434,-1.5623 -2.6652,-2.9868 -0.3215,-1.4244 -0.1837,-2.803 0.3218,-4.0895 0.0918,-0.1838 0.1378,-0.3217 0.2296,-0.5055 0.046,-0.1837 0.1839,-0.3676 0.2299,-0.5514 0.2756,-0.5054 0.5973,-0.965 0.8729,-1.4245 0.3218,-0.4594 0.6894,-0.8729 0.9191,-1.2865l3.584 1.4704 -0.4594 1.1947 -2.3435 -0.5514c-0.4135,0.1837 -0.827,0.4595 -1.1488,0.7351 -0.3215,0.3218 -0.5514,0.6892 -0.7351,1.1488 0,0 -0.0459,0.0918 -0.0459,0.0918 0,0 0,0.0461 0,0.0461 -0.2758,0.7811 -0.2758,1.7002 -0.0919,2.5272 0.2756,0.8272 0.7811,1.4705 1.6542,1.792 0.6433,0.2758 1.2865,0.2758 1.792,0.0459 0.4595,-0.2756 1.0569,-0.5973 1.5164,-0.9648 0.0919,-0.138 0.2297,-0.2758 0.3215,-0.3676 0.138,-0.0919 0.3218,-0.2297 0.4136,-0.3677 0.1378,-0.1378 0.3217,-0.3215 0.5055,-0.4594 0.1378,-0.1379 0.3217,-0.3676 0.4595,-0.5054 0.7811,-0.7813 1.6542,-1.4245 2.5272,-1.9759 0.919,-0.5055 1.93,-0.5974 3.0328,-0.1378 1.4704,0.5973 2.3434,1.5623 2.6191,2.8948 0.2757,1.3324 0.2757,2.711 -0.092,3.9976 -0.0459,0.1839 -0.1378,0.4136 -0.2297,0.5514 -0.0459,0.1839 -0.0918,0.4136 -0.1837,0.5973 -0.046,0.138 -0.138,0.3217 -0.1839,0.4595 -0.046,0.1839 -0.1838,0.3218 -0.2297,0.5055 -0.2297,0.5055 -0.5055,0.965 -0.8272,1.4704 -0.2756,0.4596 -0.6433,0.965 -1.0108,1.2866l0 -0.0459zm4.1814 -12.9579l0.2758 -1.5163 -0.2758 -0.4136 -0.0459 0 -13.2796 -3.3084 -0.4136 0.2297 -0.4595 1.5163 -1.0108 -0.2756 1.5163 -6.0654 1.0109 0.2756 -0.2756 1.5624 0.1837 0.4595 0.1378 0.0459 13.1877 3.3084 0.4595 -0.3217 0.5514 -1.5162 0.965 0.2297 -1.5164 6.0654 -1.0109 -0.2757zm3.0787 -8.8684l-4.3193 -0.6433 0.2756 -1.4703 2.849 0.1837 0.5055 -0.3217c0.2297,-0.3215 0.4594,-0.6892 0.5973,-1.1487 0.1838,-0.4595 0.2757,-0.9649 0.3675,-1.4244 0.138,-0.965 0.046,-1.884 -0.2756,-2.757 -0.3217,-0.8272 -1.0109,-1.3786 -2.1137,-1.5164 -0.8272,-0.1378 -1.6083,0.046 -2.1597,0.5514 -0.5514,0.5974 -1.1028,1.2406 -1.5164,1.9759 -0.1837,0.2757 -0.4134,0.6433 -0.5514,0.9189 -0.1378,0.3218 -0.3215,0.5974 -0.4595,0.8732 -0.5053,0.7351 -1.1947,1.4703 -1.9757,2.0677 -0.7352,0.5974 -1.7002,0.8271 -2.7111,0.6893 -1.5164,-0.2758 -2.6192,-1.0569 -3.2625,-2.3435 -0.5973,-1.3326 -0.827,-2.711 -0.5973,-4.0437 0.0459,-0.1837 0.0459,-0.3675 0.0919,-0.5514 0.0459,-0.1837 0.0918,-0.4135 0.1378,-0.5973 0.1379,-0.5055 0.3676,-1.0569 0.5514,-1.5623 0.1379,-0.5514 0.4136,-1.0109 0.5973,-1.4703l3.8139 0.5973 -0.2297 1.2866 -2.3434 0c-0.3677,0.2757 -0.7353,0.6432 -0.965,0.965 -0.2297,0.3675 -0.4136,0.827 -0.4595,1.2865 0,0 -0.046,0.0919 -0.046,0.0919 0,0 0,0.0919 0,0.0919 -0.0918,0.8271 0.0919,1.6542 0.5055,2.4354 0.4136,0.7811 1.1028,1.2406 1.9759,1.3784 0.6892,0.138 1.3325,0 1.7461,-0.3675 0.4595,-0.3676 0.9189,-0.7812 1.2865,-1.2867 0.046,-0.1378 0.1838,-0.2756 0.2297,-0.4134 0.138,-0.138 0.2758,-0.3217 0.3217,-0.4136 0.1378,-0.1838 0.2297,-0.4595 0.3677,-0.5973 0.1378,-0.1839 0.2756,-0.4136 0.3675,-0.5974 0.5973,-0.919 1.2867,-1.7461 2.0218,-2.4814 0.7811,-0.6892 1.7461,-1.0109 2.9408,-0.827 1.5164,0.2297 2.6192,1.0109 3.1706,2.2056 0.5973,1.2866 0.8731,2.6191 0.8271,3.9517 -0.0459,0.1837 -0.092,0.4136 -0.092,0.5973 -0.0459,0.1838 -0.0459,0.4136 -0.0459,0.5974 -0.046,0.1837 -0.046,0.3676 -0.0919,0.5054 -0.0459,0.1838 -0.0919,0.3677 -0.1378,0.5514 -0.0919,0.5055 -0.2758,1.0569 -0.4136,1.5624 -0.1837,0.5514 -0.4595,1.1028 -0.7351,1.5163l-0.046 -0.046zm-6.8466 -22.8831c0.0459,-0.4595 0.2758,-0.8731 0.5973,-1.0568 0.3217,-0.2297 0.7353,-0.3216 1.1028,-0.2756 0.3677,0 0.7813,0.1837 1.0569,0.4134 0.3217,0.2758 0.4595,0.6894 0.4595,1.1947 -0.0459,0.4595 -0.2756,0.8731 -0.5973,1.0568 -0.3216,0.2299 -0.6892,0.3217 -1.0569,0.2758 -0.3675,0 -0.7811,-0.1378 -1.1028,-0.3677 -0.2756,-0.3215 -0.4595,-0.7351 -0.4136,-1.1946l-0.0459 -0.046zm-204.064 -17.5988l1.0569 0.0919 -0.0919 1.4704 0.2758 0.3217 13.0497 -3.1246 -11.9469 -5.9736 -0.3217 0.2297 -0.2757 1.5164 -1.0568 -0.1378 0.5973 -4.9626 1.0569 0.1378 0.0918 1.6083 1.7461 0.919 12.866 6.6168 -0.2297 1.7002 -1.8841 0.4595 -14.1525 3.4921 -0.4595 1.4246 -1.0109 -0.0921 0.6892 -5.6977zm17.2773 -9.7415l0.2297 -1.5162 -0.3216 -0.4136 -0.0461 0 -13.3714 -2.8489 -0.4136 0.2297 -0.4134 1.5164 -1.0109 -0.2297 1.2865 -6.1115 1.0569 0.2299 -0.2756 1.6082 0.2297 0.4596 0.1378 0.0459 13.3254 2.8029 0.4596 -0.3217 0.4595 -1.5623 0.965 0.2298 -1.2866 6.1114 -1.0109 -0.2299zm1.5623 -7.1682l0.3216 -1.3784 -0.1838 -0.5514 -0.0459 0 -13.0958 -3.9976 -0.4595 0.3216 -0.5055 1.3785 -1.0109 -0.2757 1.7462 -5.7897 1.0108 0.3216 -0.3216 1.3326 0.1838 0.5514 0.4595 0.1379 13.0499 3.9976 1.6542 -5.4222 -0.3217 -0.4593 -2.757 -1.2408 0.4135 -1.2406 4.3653 1.2865 -3.4923 11.3957 -1.0108 -0.3677zm3.7219 -12.2226l0.4595 -1.4703 -0.2297 -0.5514 -12.4066 -5.514 -0.4595 0.2297 -0.7351 1.3785 -0.965 -0.4136 1.884 -4.2274 0.5514 0.2298 15.1175 -2.5732 -10.7063 -4.7789 -0.5514 0.2299 -0.7812 1.3325 -0.9649 -0.4136 2.1136 -4.7787 0.965 0.4134 -0.4136 1.3786 0.1839 0.6433 1.3325 0.5973 12.4525 5.514 -0.6894 1.5164 -0.6432 0.0919 -16.1744 2.8029 11.4416 5.1004 0.5514 -0.2297 0.827 -1.2865 0.9191 0.4134 -2.1137 4.7789 -0.965 -0.4136zm7.5818 -15.3013l0.781 -1.3785 -0.1378 -0.4596 -0.0459 -0.0459 -11.6253 -7.2601 -0.4136 0.1378 -0.9189 1.2406 -0.9191 -0.5514 3.3084 -5.2841 0.9191 0.5514 -0.7813 1.4243 0.046 0.5055 0.1379 0.092 11.5333 7.1682 0.5055 -0.1379 0.965 -1.2866 0.8731 0.5514 -3.3084 5.2843 -0.919 -0.5514zm-3.2625 -23.1128l2.0218 0.5973 14.0147 4.2273 1.1488 -0.9189 0.7812 0.5974 -3.4464 4.4571 -0.7811 -0.6433 0.8272 -1.2867 -0.2298 -0.3215 -4.7789 -1.5624 -3.6299 4.6409 2.6192 4.3193 0.4134 0.046 1.1487 -1.1947 0.7813 0.5973 -2.9869 3.8598 -0.7811 -0.6432 0.5974 -1.2866 -1.0109 -1.8381 -7.7196 -12.3605 1.0109 -1.2865zm5.3762 8.7303l3.0326 -3.9057 -7.0302 -2.2975 3.9976 6.2032zm6.8465 -21.1369l0.6432 0.8272 -1.1028 1.0568 -0.0918 0.5054 5.9735 6.8925c0.1378,0.1838 0.3217,0.3677 0.4595,0.5055 0.1378,0.1837 0.3677,0.3676 0.4595,0.5055 0.2757,0.2756 0.5514,0.5054 0.873,0.6892 0.2758,0.1837 0.6894,0.3217 1.0569,0.3676 0.5973,0.1378 1.2867,0.0919 1.9299,-0.1379 0.6433,-0.2757 1.2406,-0.5974 1.792,-1.1028 0.5514,-0.4135 1.011,-1.0108 1.3325,-1.6082 0.3217,-0.5974 0.4596,-1.2867 0.4136,-1.884 0,-0.3676 -0.0919,-0.7811 -0.2297,-1.0569 -0.1839,-0.3675 -0.3217,-0.7351 -0.5514,-1.0109 -0.1378,-0.1378 -0.2757,-0.3675 -0.4136,-0.5054 -0.1378,-0.1838 -0.3217,-0.3675 -0.4595,-0.5514l-5.8355 -6.7547 -0.5974 0 -1.2407 0.8272 -0.6893 -0.8272 3.9517 -3.4462 0.6892 0.8271 -1.0107 1.1028 -0.0921 0.6434 5.9736 6.8465c0.1839,0.2297 0.3676,0.4136 0.5054,0.5973 0.1839,0.2298 0.3217,0.4595 0.5055,0.6433 0.2758,0.3676 0.5054,0.8731 0.6892,1.2867 0.2298,0.4594 0.3217,1.0108 0.3676,1.5162 0,0.6894 -0.1378,1.3786 -0.5054,1.9759 -0.3216,0.6433 -0.7811,1.2866 -1.2406,1.792 -0.1378,0.1379 -0.3217,0.3677 -0.4596,0.5055 -0.1837,0.1378 -0.3676,0.3677 -0.5054,0.4595 -0.1378,0.1378 -0.3216,0.3217 -0.4595,0.4136 -0.1838,0.1838 -0.4596,0.2756 -0.6433,0.4135 -0.5974,0.4135 -1.2866,0.7812 -1.9298,1.0109 -0.6435,0.2298 -1.3786,0.3217 -2.0678,0.2298 -0.5055,-0.0919 -1.011,-0.2758 -1.3786,-0.5514 -0.4134,-0.2758 -0.873,-0.5973 -1.1947,-0.919 -0.1837,-0.1838 -0.3675,-0.4136 -0.5514,-0.5514 -0.1378,-0.2297 -0.3675,-0.4136 -0.5054,-0.5974l-6.1573 -7.0304 -0.5055 0.046 -1.1487 0.8731 -0.6892 -0.8272 4.6409 -3.9976zm19.4829 5.2384l-2.4355 -3.6301 1.2867 -0.8271 1.792 2.2056 0.5514 0.1838c0.4136,-0.0459 0.8271,-0.1378 1.2406,-0.3217 0.4596,-0.1838 0.9191,-0.4135 1.3325,-0.6892 0.7813,-0.5055 1.4245,-1.1947 1.8381,-2.0219 0.4136,-0.827 0.3216,-1.7001 -0.2758,-2.619 -0.4595,-0.6894 -1.1028,-1.1487 -1.8379,-1.1948 -0.8272,-0.046 -1.7001,0 -2.4814,0.1839 -0.3675,0.0459 -0.7351,0.0918 -1.0567,0.1837 -0.3217,0.1378 -0.6893,0.1838 -0.965,0.2299 -0.8731,0.1837 -1.9299,0.0918 -2.8488,-0.0461 -0.965,-0.1379 -1.7463,-0.7352 -2.2977,-1.5622 -0.8729,-1.3327 -1.0107,-2.6192 -0.4593,-3.9978 0.5514,-1.3325 1.4243,-2.3893 2.5731,-3.1704 0.1839,-0.092 0.3217,-0.1839 0.4595,-0.2758 0.1837,-0.0919 0.4136,-0.1837 0.5514,-0.2756 0.4595,-0.2758 1.0109,-0.4595 1.5164,-0.6894 0.5054,-0.2297 1.0568,-0.3675 1.4704,-0.5054l2.1136 3.2165 -1.0569 0.6894 -1.6081 -1.7463c-0.4595,-0.0919 -0.919,-0.0919 -1.3326,-0.0459 -0.4595,0.0459 -0.873,0.2298 -1.2866,0.5054 0,0 -0.0918,0.046 -0.0918,0.046 0,0 -0.046,0.0459 -0.046,0.0459 -0.6893,0.4595 -1.1948,1.1949 -1.5164,1.9759 -0.2757,0.8732 -0.1839,1.6542 0.3216,2.4353 0.3676,0.5974 0.919,0.965 1.4704,1.0569 0.5055,0.0919 1.1947,0.138 1.7921,0.0919 0.1379,-0.046 0.3217,-0.0919 0.5054,-0.0919 0.1378,0 0.3677,-0.046 0.5055,-0.0919 0.1837,0 0.4595,-0.0919 0.6892,-0.0919 0.1839,-0.0459 0.4595,-0.0918 0.6894,-0.1378 1.0568,-0.1839 2.1135,-0.2298 3.1704,-0.1379 1.0568,0.092 1.93,0.5975 2.5732,1.6082 0.8732,1.2867 1.011,2.6192 0.5055,3.8598 -0.5514,1.2867 -1.3786,2.3895 -2.3893,3.2165 -0.184,0.1379 -0.3677,0.2299 -0.5055,0.3677 -0.1839,0.0919 -0.3217,0.2297 -0.5055,0.3216 -0.1378,0.1379 -0.2757,0.2298 -0.4136,0.2757 -0.1378,0.1378 -0.3217,0.1838 -0.4595,0.2757 -0.5054,0.3217 -1.0109,0.5514 -1.5164,0.7353 -0.5053,0.2296 -1.1028,0.4135 -1.6081,0.5054l0.046 -0.0459zm17.0013 -26.697l0.2758 1.0109 -1.4245 0.5514 -0.3216 0.4136 2.6651 8.7305c0.046,0.1837 0.1379,0.4594 0.1838,0.6433 0.0919,0.2296 0.1837,0.4595 0.2756,0.6432 0.092,0.3677 0.2758,0.6892 0.4595,0.965 0.1839,0.3216 0.5514,0.5974 0.8272,0.7811 0.5055,0.3677 1.1488,0.6433 1.838,0.6433 0.6892,0.0459 1.3785,-0.046 2.0678,-0.2297 0.6892,-0.2298 1.3324,-0.5514 1.8838,-0.965 0.5514,-0.4136 0.965,-0.965 1.1488,-1.5623 0.1379,-0.3216 0.2298,-0.7352 0.2298,-1.0569 -0.0459,-0.3675 0,-0.7811 -0.1378,-1.1487 -0.0461,-0.1378 -0.092,-0.4134 -0.138,-0.5974 -0.0459,-0.2296 -0.1378,-0.5054 -0.1837,-0.7351l-2.6192 -8.5008 -0.5055 -0.2757 -1.4703 0.2297 -0.3217 -1.0107 5.0086 -1.5164 0.3217 1.0109 -1.4245 0.6433 -0.3216 0.5054 2.665 8.6845c0.092,0.2757 0.1839,0.5514 0.2298,0.7812 0.0919,0.2297 0.1378,0.5055 0.2297,0.7811 0.0919,0.4595 0.0919,0.965 0.0919,1.4704 0,0.4596 -0.0919,1.0569 -0.3216,1.5164 -0.2298,0.5974 -0.6892,1.1947 -1.2406,1.6083 -0.5514,0.4594 -1.1948,0.827 -1.8381,1.1487 -0.2297,0.046 -0.4595,0.1838 -0.6433,0.2297 -0.2297,0.0459 -0.4595,0.1838 -0.6432,0.2299 -0.1838,0.0459 -0.4596,0.1378 -0.6433,0.1837 -0.1839,0.0919 -0.5055,0.0919 -0.7353,0.1378 -0.6892,0.1378 -1.4703,0.1838 -2.1597,0.1378 -0.6892,-0.0919 -1.3784,-0.2756 -1.9757,-0.6433 -0.4136,-0.2756 -0.8272,-0.6432 -1.0569,-1.0568 -0.2297,-0.4134 -0.5514,-0.9189 -0.7352,-1.3325 -0.0459,-0.2758 -0.1379,-0.5055 -0.2298,-0.7351 -0.0459,-0.2758 -0.1837,-0.5055 -0.2297,-0.7354l-2.757 -8.9142 -0.4595 -0.1838 -1.4245 0.3216 -0.2756 -1.0109 5.8355 -1.792zm15.3933 11.5793l1.5164 -0.3215 0.3676 -0.4595 -1.1947 -13.5094 -0.4595 -0.3216 -1.5623 0.046 -0.0919 -1.0569 4.6409 -0.3676 0.0459 0.5973 9.6037 11.947 -1.0569 -11.6712 -0.4136 -0.3677 -1.6082 -0.0459 -0.0919 -1.0569 5.2382 -0.4595 0.092 1.0569 -1.4245 0.3217 -0.4595 0.4595 0.1378 1.4703 1.1948 13.5553 -1.6542 0.1378 -0.4135 -0.5055 -10.2929 -12.82 1.1028 12.4985 0.4595 0.3675 1.5624 0.0919 0.0918 1.0109 -5.2382 0.4595 -0.092 -1.0569zm17.2773 -1.1028l1.5621 -0.0459 0.3218 -0.3676 0 -0.046 0.5054 -13.647 -0.3217 -0.3677 -1.5622 -0.1378 0.046 -1.0568 6.2491 0.2297 -0.0459 1.0568 -1.6083 0.046 -0.4136 0.2757 -0.0459 0.1378 -0.4595 13.6013 0.4136 0.4134 1.6082 0.1839 -0.0459 1.011 -6.2492 -0.2299 0.046 -1.0569zm16.0824 -14.1065l-0.2298 1.0108 -1.4703 -0.1838 -0.3217 0.2299 1.9759 13.2795 7.0302 -11.3497 -0.2296 -0.3677 -1.4705 -0.4134 0.1839 -1.0569 4.9167 1.0569 -0.2299 1.0108 -1.5623 -0.046 -1.1487 1.7002 -7.6737 12.2228 -1.7001 -0.3677 -0.2757 -1.9299 -2.2515 -14.3824 -1.3786 -0.5973 0.2299 -1.0109 5.6058 1.1948zm8.2251 17.6907l1.3325 0.5055 0.5055 -0.1839 0.0459 -0.046 5.5599 -12.4982 -0.2756 -0.4596 -1.1947 -0.6432 0.4135 -0.965 10.8901 4.8248 -1.4704 3.3543 -1.3784 -0.5973 0.5973 -2.0219 -0.1837 -0.5514 -5.2384 -2.2975 -2.5733 5.7896 3.722 1.6542 0.5055 -0.2296 0.965 -1.5624 1.0568 0.5055 -2.2515 5.0085 -1.0569 -0.4595 0.5055 -1.792 -0.1839 -0.5055 -3.7218 -1.6082 -2.803 6.3871 6.0654 2.7111 0.5053 -0.2299 1.3786 -2.1137 1.1947 0.5054 -1.6542 3.722 -11.6713 -5.1922 0.4136 -1.011zm26.6509 -4.1815c1.2407,0.8272 2.2516,1.838 2.9867,2.9408 0.6894,1.1028 0.5514,2.4813 -0.4593,4.0437 -0.6894,1.1028 -1.5624,1.6542 -2.5274,1.746 -0.9649,0.0919 -2.0218,0 -3.1246,-0.3676 0.8272,0.965 1.2867,1.7922 1.2867,2.3895 -0.0459,0.6433 -0.138,1.3325 -0.4136,2.0217 -0.1837,0.3217 -0.2758,0.7812 -0.4595,1.1487 -0.1378,0.4595 -0.2297,1.0109 -0.2756,1.5623 0.0459,0.6433 0.2296,1.1947 0.5973,1.5624 0.4134,0.3676 0.827,0.7811 1.3325,1.0568 0,0 0,0.046 0,0.046 0,0 0.0919,0.0459 0.0919,0.0459l-0.5055 0.7812c-0.0919,-0.046 -0.2297,-0.1379 -0.3216,-0.1839 -0.1378,-0.0459 -0.2757,-0.1837 -0.3676,-0.2296 -0.1838,-0.0919 -0.4136,-0.2299 -0.5974,-0.3218 -0.1837,-0.1378 -0.4135,-0.2296 -0.5514,-0.3215 -0.6892,-0.4595 -1.1946,-1.0109 -1.5163,-1.6083 -0.2757,-0.6433 -0.2757,-1.6082 0,-2.711 0.1839,-0.4136 0.3217,-0.9191 0.4135,-1.2407 0.1379,-0.3676 0.2297,-0.8271 0.2758,-1.1028 0.2756,-0.919 0.2756,-1.7462 0.046,-2.2516 -0.2299,-0.5053 -0.9191,-1.1947 -2.0678,-1.8839l-0.8272 -0.5974 -3.2164 5.0086 0.1378 0.5054 1.1028 0.9191 -0.5514 0.827 -4.9626 -3.2165 0.5514 -0.827 1.2406 0.5973 0.5974 -0.0459 0 -0.046 7.444 -11.4875 -0.1839 -0.5055 -1.1028 -0.8271 0.5514 -0.873 5.3761 3.4462zm-6.341 5.5599c0,0 0.046,0.0919 0.046,0.0919 0.0459,0 0.1378,0.046 0.1837,0.0921 0.1378,0.0918 0.3677,0.2296 0.5055,0.3674 0.1837,0.0919 0.3676,0.184 0.5514,0.2758 0.827,0.5514 1.746,0.873 2.6192,1.0569 0.9189,0.1378 1.8379,-0.2758 2.619,-1.2867l0.092 -0.1838c0.3216,-0.4595 0.5053,-1.0109 0.6433,-1.5623 0.0919,-0.5973 0.0919,-1.1947 -0.0919,-1.792 -0.1839,-0.3217 -0.4136,-0.6892 -0.7353,-0.965 -0.3215,-0.2756 -0.6433,-0.6433 -1.0109,-0.827 -0.0459,-0.0459 -0.0919,-0.092 -0.1378,-0.138 -0.0919,-0.0459 -0.1378,-0.0919 -0.1838,-0.0919l-1.3326 -0.8729 -3.7678 5.8355zm5.9734 13.831l2.8029 -3.3084 1.1489 0.965 -1.6542 2.3434 0 0.5973c0.1378,0.3677 0.3675,0.7353 0.6433,1.1028 0.2756,0.3677 0.6892,0.7813 1.0109,1.1028 0.7352,0.5974 1.5622,1.0569 2.4812,1.1948 0.8732,0.1838 1.7002,-0.1379 2.4353,-0.9649 0.5514,-0.6433 0.7813,-1.3786 0.6435,-2.1138 -0.1839,-0.7811 -0.4596,-1.6082 -0.8732,-2.3434 -0.1378,-0.3217 -0.2756,-0.6893 -0.4595,-0.965 -0.1837,-0.2757 -0.3675,-0.5973 -0.5054,-0.8731 -0.3675,-0.7811 -0.5974,-1.792 -0.6893,-2.711 -0.1378,-0.9649 0.1838,-1.9299 0.8272,-2.665 1.0108,-1.1948 2.2516,-1.7001 3.7219,-1.5623 1.4245,0.1837 2.711,0.7351 3.7679,1.6542 0.1378,0.0918 0.2758,0.2296 0.4136,0.3675 0.1378,0.092 0.2756,0.2757 0.4136,0.4135 0.3674,0.3677 0.6892,0.8732 1.0568,1.2867 0.3675,0.4135 0.5974,0.9189 0.9189,1.2866l-2.5271 2.8948 -1.011 -0.827 1.2866 -2.0219c-0.046,-0.4595 -0.1838,-0.919 -0.3216,-1.3325 -0.1839,-0.4135 -0.4595,-0.7812 -0.8272,-1.0568 0,0 -0.0918,-0.046 -0.0918,-0.046 0,0 -0.046,-0.092 -0.046,-0.092 -0.6432,-0.5054 -1.4704,-0.7811 -2.3434,-0.8729 -0.8731,-0.046 -1.6542,0.2756 -2.2517,0.9649 -0.4593,0.5514 -0.6432,1.1488 -0.5973,1.7002 0.092,0.5514 0.1839,1.1947 0.4136,1.7461 0.0919,0.1378 0.1378,0.3215 0.2298,0.4595 0.046,0.1378 0.1378,0.3215 0.1838,0.4594 0.0918,0.1839 0.2297,0.4135 0.3215,0.6434 0.0921,0.1837 0.2299,0.4134 0.3217,0.5973 0.4596,1.0109 0.8272,2.0217 1.011,3.0326 0.1837,1.011 -0.046,2.0219 -0.8272,2.9409 -1.0569,1.1488 -2.2515,1.6542 -3.584,1.5163 -1.3786,-0.1838 -2.6652,-0.6433 -3.768,-1.4244 -0.1378,-0.0919 -0.3217,-0.2758 -0.4595,-0.3676 -0.1378,-0.1378 -0.3675,-0.2297 -0.5054,-0.3677 -0.1379,-0.1378 -0.2757,-0.2297 -0.3675,-0.3215 -0.138,-0.1379 -0.2299,-0.2758 -0.3677,-0.4136 -0.4136,-0.3677 -0.7811,-0.7811 -1.1487,-1.1947 -0.3677,-0.4595 -0.6892,-0.965 -0.9191,-1.4245l0.0919 0zm9.0522 7.398l1.1028 1.1028 0.5055 -0.0459 0.0459 0 10.0171 -9.3279 0 -0.4595 -1.0109 -1.2406 0.7812 -0.6894 4.2732 4.5492 -0.781 0.7351 -1.1488 -1.1028 -0.5054 -0.0918 -0.1378 0.0918 -9.9252 9.282 0 0.5514 1.0107 1.2406 -0.7351 0.6892 -4.2734 -4.549 0.7812 -0.7352zm17.8745 -3.8598l8.3629 10.7063 -3.0326 2.3893 -0.8272 -1.1028 1.6082 -1.6542 0.046 -0.5973 -2.2975 -2.9867 -0.3675 0.3217 -10.7064 8.3629 -0.046 0.5514 0.9191 1.3784 -0.8272 0.6433 -3.9517 -5.1004 0.7811 -0.6433 1.1028 1.2406 0.5514 0.0919 0.3217 -0.2756 10.7524 -8.4088 -2.2517 -2.9409 -0.5973 -0.046 -2.0217 1.1028 -0.8731 -1.0568 3.0327 -2.3894 0.3216 0.4136zm-3.4462 21.4587l0.6892 1.1946 0.5514 0.2297 0.0459 -0.0459 12.1768 -6.2032 0.092 -0.5055 -0.5514 -1.2865 0.9648 -0.4595 5.3762 10.6144 -3.2165 1.6082 -0.6433 -1.2865 1.7002 -1.1949 0.1837 -0.5514 -2.5731 -5.0544 -5.6518 2.8488 1.838 3.6302 0.5054 0.1378 1.7461 -0.5974 0.5055 1.0569 -4.9167 2.4814 -0.5055 -1.011 1.5164 -1.1028 0.1378 -0.4595 -1.8379 -3.6301 -6.2034 3.1706 3.0328 5.9276 0.5055 0.1378 2.3893 -0.7352 0.5973 1.1488 -3.584 1.8379 -5.7898 -11.3955 0.9191 -0.5054zm21.5965 7.6275l4.4112 12.8661 -3.63 1.2407 -0.4595 -1.2866 2.0676 -1.0569 0.2758 -0.5514 -1.2406 -3.5382 -0.4136 0.138 -12.866 4.4112 -0.2298 0.5054 0.4136 1.6081 -0.965 0.3677 -2.1137 -6.1573 0.965 -0.3217 0.6892 1.5164 0.4595 0.2758 0.4136 -0.138 12.9119 -4.4571 -1.2406 -3.4922 -0.5055 -0.2758 -2.2975 0.4136 -0.4595 -1.2865 3.6301 -1.2866 0.1838 0.5053zm7.6277 24.4455l-1.7461 1.1947 -12.2686 7.9952 0 1.4705 -1.0109 0.1837 -1.1488 -5.4679 0.9649 -0.2298 0.4595 1.4704 0.3677 0.046 4.2733 -2.6652 -1.1948 -5.7896 -5.0085 -0.7353 -0.3216 0.2758 0.2297 1.6542 -1.0109 0.2297 -1.0108 -4.7789 1.0108 -0.2296 0.5973 1.3324 2.0219 0.3677 14.4742 2.0678 0.3217 1.6082zm-10.1549 -1.5164l1.0567 4.8708 6.2493 -3.9058 -7.306 -0.965zm-4.2734 13.1418l4.3653 -0.3217 0.0919 1.5163 -2.803 0.4596 -0.4595 0.4136c-0.1378,0.3675 -0.2758,0.781 -0.3217,1.2406 -0.046,0.4595 -0.046,1.0109 -0.046,1.4704 0.0919,0.9649 0.3677,1.8839 0.8732,2.6191 0.5514,0.7353 1.3324,1.1028 2.4352,1.0109 0.8272,-0.046 1.5624,-0.4136 1.976,-1.0569 0.4135,-0.6433 0.781,-1.4243 1.0109,-2.2056 0.1378,-0.3675 0.2756,-0.7351 0.3675,-1.0568 0.0459,-0.3216 0.1839,-0.6433 0.2298,-0.9189 0.3216,-0.8732 0.873,-1.7463 1.4703,-2.4814 0.5975,-0.7811 1.4705,-1.1947 2.4814,-1.2866 1.5623,-0.0918 2.8029,0.4136 3.676,1.5624 0.9189,1.1487 1.4244,2.4352 1.5163,3.8138 0.0459,0.1838 0.0459,0.3675 0.0459,0.5514 0,0.1838 0,0.4135 0,0.5974 0,0.5514 -0.0919,1.1028 -0.1378,1.6542 -0.0919,0.5514 -0.2297,1.1028 -0.2756,1.5621l-3.8598 0.2758 -0.0919 -1.2865 2.2975 -0.5514c0.3215,-0.3218 0.5514,-0.7813 0.7351,-1.1488 0.1378,-0.4136 0.1838,-0.8731 0.1838,-1.3326 0,0 0,-0.0919 0,-0.0919 0,0 -0.046,-0.0919 -0.046,-0.0919 -0.0918,-0.8271 -0.4595,-1.6542 -1.0109,-2.2974 -0.5973,-0.6435 -1.3784,-0.965 -2.2975,-0.9191 -0.6892,0.0919 -1.2406,0.3217 -1.6082,0.7811 -0.3216,0.4136 -0.6892,0.965 -0.9189,1.5164 -0.046,0.1837 -0.138,0.3676 -0.1839,0.5054 -0.046,0.1379 -0.1378,0.3218 -0.1838,0.4596 -0.0918,0.1837 -0.1378,0.4595 -0.2297,0.6432 -0.092,0.2297 -0.1379,0.5055 -0.2298,0.6893 -0.3216,1.0109 -0.827,1.9759 -1.4244,2.8488 -0.5514,0.8731 -1.4704,1.3786 -2.6651,1.4705 -1.5164,0.1378 -2.757,-0.4136 -3.5842,-1.4244 -0.8729,-1.1028 -1.4703,-2.3435 -1.7001,-3.676 0,-0.1838 0,-0.4136 0,-0.5974 -0.0459,-0.1839 -0.0919,-0.4136 -0.0919,-0.5973 -0.0459,-0.1839 -0.0459,-0.3677 -0.0459,-0.5055 0,-0.1839 0,-0.3676 0,-0.5514 -0.0459,-0.5514 0,-1.1028 0.0919,-1.6542 0.0459,-0.5514 0.1837,-1.1487 0.3217,-1.6542l0.0459 0.046zm-123.743 -61.6649c0.4595,0 0.8731,0.2297 1.1028,0.5514 0.2758,0.3676 0.4136,0.7811 0.4136,1.1487 0,0.4136 -0.1378,0.8272 -0.3675,1.1487 -0.2758,0.3677 -0.6894,0.5514 -1.1489,0.5514 -0.5514,0 -0.9648,-0.1837 -1.1947,-0.5054 -0.2756,-0.3216 -0.4134,-0.7352 -0.4134,-1.1488 0,-0.4135 0.1378,-0.827 0.3675,-1.1487 0.2758,-0.3676 0.6892,-0.5514 1.2406,-0.5514l0 -0.0459zm15.8069 -7.5359l-0.046 2.0219 0 14.4282 0.3677 0.3677 2.8489 0.0919 0 1.1028 -8.8684 0 0 -1.1028 3.0326 -0.1838 0.3218 -0.4136 0 -14.1986 -4.1356 0.7813 0 -1.1028 5.7438 -1.7462 0.7352 -0.046zm14.9337 0.3677l-0.0459 2.0218 -7.7656 0 0 5.2842c0.4596,-0.0919 1.011,-0.1838 1.4705,-0.2297 0.4593,-0.0459 0.9648,-0.0919 1.3325,-0.0919 1.8379,0 3.3084,0.5055 4.2274,1.5163 0.9648,1.0109 1.4703,2.2056 1.4703,3.4463 0,0 0,0.046 0,0.046 0,0 0,0.0459 0,0.0459 0,1.9298 -0.7351,3.4003 -2.1136,4.3193 -1.3785,0.9648 -2.9868,1.4703 -4.6869,1.4703 -0.2297,0 -0.5514,0 -0.8271,0 -0.3217,0 -0.6893,-0.0919 -1.0109,-0.1378 -0.6894,-0.0919 -1.3786,-0.3677 -1.93,-0.6892 -0.5514,-0.3217 -0.8729,-0.8731 -0.8729,-1.6083 0,-0.3676 0.1837,-0.7351 0.4595,-0.919 0.2756,-0.1838 0.6892,-0.3216 1.1487,-0.3216l0.5514 -0.0459 0.9649 2.2515c0.2758,0.0919 0.5973,0.2297 0.8731,0.2756 0.2756,0.0919 0.5973,0.1378 0.827,0.1378 1.2867,0 2.3436,-0.4593 3.0787,-1.2865 0.7352,-0.873 1.1488,-1.9298 1.1488,-3.1247 0,-0.0918 0,-0.2296 0,-0.3215 0,-0.0919 -0.046,-0.2758 -0.046,-0.3677 -0.1837,-1.1487 -0.7351,-1.9757 -1.6542,-2.3434 -0.919,-0.4136 -1.9759,-0.6892 -3.0787,-0.6892 -0.0919,0 -0.2297,-0.0459 -0.3215,-0.0459 -0.0919,0 -0.2299,0 -0.3218,0 -0.4136,0 -0.827,0 -1.1946,0 -0.3677,0 -0.7811,0.0919 -1.1028,0.0919l0 -8.6846 9.4197 0zm13.8769 0l0 1.1028 -1.3785 2.4813 -7.398 14.4283 0 0.5055 -2.2056 0 1.1948 -2.1597 7.3979 -14.3364 -8.0872 0 -0.4135 2.3894 -1.2867 0 0 -4.4112 12.1768 0zm2.4813 17.8285c0,0 0.046,-0.0459 0.046,-0.0459 0,0 0.0459,-0.046 0.0459,-0.046 1.792,-0.827 3.3544,-1.792 4.549,-2.8029 1.2406,-1.0109 2.2975,-2.5272 3.1247,-4.3653 -0.7352,0.3677 -1.5164,0.6433 -2.1597,0.7353 -0.6892,0.1379 -1.3325,0.2297 -1.8839,0.2297 -1.7462,0 -3.0787,-0.5514 -3.9518,-1.6542 -0.873,-1.1028 -1.3325,-2.4353 -1.3325,-3.8138 0,-0.046 0,-0.1378 0,-0.1838 0,-0.0459 0,-0.1379 0,-0.1839 0.0919,-1.4703 0.6892,-2.8948 1.7002,-4.0895 1.0568,-1.1946 2.6191,-1.8379 4.6408,-1.8379 1.8841,0 3.3545,0.6433 4.3653,1.9298 1.0109,1.2866 1.5623,2.8948 1.5623,4.7329 0,2.9408 -1.0109,5.56 -3.0326,7.7656 -2.0218,2.2515 -4.3653,3.8598 -7.0304,4.7786l-0.6433 -1.1487zm8.0871 -8.5466c0,-0.1838 0.0921,-0.4595 0.0921,-0.6892 0.0459,-0.2299 0.1378,-0.5055 0.1378,-0.7353 0,-0.2756 0.0459,-0.5514 0.0459,-0.7811 0,-0.2298 0.046,-0.5055 0.046,-0.6892 0,-0.138 0,-0.3217 0,-0.4595 0,-0.1379 -0.046,-0.3218 -0.046,-0.4596 0,-0.3217 -0.0919,-0.6892 -0.0919,-0.965 -0.0459,-0.2756 -0.1839,-0.5973 -0.2757,-0.8729 -0.2297,-0.7813 -0.6892,-1.4245 -1.3325,-1.8841 -0.6433,-0.4595 -1.4245,-0.6892 -2.1597,-0.6892 -0.0459,0 -0.1378,0 -0.1837,0 -0.0921,0 -0.1839,0 -0.2299,0 -0.2756,0 -0.5514,0.0919 -0.827,0.1838 -0.2758,0.0919 -0.5514,0.3217 -0.7812,0.5054 -0.5514,0.4596 -0.9649,1.0569 -1.2406,1.7002 -0.2757,0.6433 -0.4596,1.3786 -0.4596,2.1137 0,0 0,0.0919 0,0.0919 0,0 0,0.0919 0,0.0919 0,1.1028 0.3217,2.1596 0.965,3.0787 0.6433,0.919 1.6083,1.3785 2.8948,1.3785 0.4596,0 1.0569,-0.092 1.6083,-0.1839 0.5514,-0.1378 1.1947,-0.4135 1.792,-0.6892l0.0459 -0.0459zm12.0849 -2.1137c0.4595,0 0.8731,0.2297 1.1028,0.5514 0.2758,0.3676 0.4136,0.7811 0.4136,1.1487 0,0.4136 -0.1378,0.8272 -0.3677,1.1487 -0.2756,0.3677 -0.6892,0.5514 -1.1487,0.5514 -0.5514,0 -0.9648,-0.1837 -1.1947,-0.5054 -0.2756,-0.3216 -0.4136,-0.7352 -0.4136,-1.1488 0,-0.4135 0.138,-0.827 0.3677,-1.1487 0.2758,-0.3676 0.6892,-0.5514 1.2406,-0.5514l0 -0.0459z"/>
   <path id="_147535544" class="fil1" d="M78.5192 128.521c-0.3075,-0.8347 -0.2197,-1.3619 -0.2197,-1.889 0,-0.5711 0.615,-0.8786 1.0983,-1.1861 1.6253,-1.0544 3.3386,-1.8889 5.2276,-2.548l-6.1062 5.6231zm55.0434 22.0524c-0.8346,-2.0647 -0.7029,-2.7675 0.3075,-3.2068l4.1733 -13.3985c-3.9976,-3.031 -4.2611,-11.5972 -0.1756,-14.6723 1.3177,-1.0105 3.3385,-1.318 3.0749,0.5711 -0.7467,2.416 -1.4497,4.9201 0.0878,7.2483 0.9666,1.1861 2.3283,2.46 2.8555,4.3929 1.0982,-0.571 1.4057,-2.6796 1.4935,-4.0415 1.1861,0.1758 1.9769,1.4497 2.8116,2.1525 0.3075,-1.1861 -0.3953,-3.0311 -0.6589,-4.0854 0.9225,0.3954 2.5478,0.3515 3.2507,-0.4831 -1.0543,-0.5711 -2.1525,-1.8011 -2.2404,-3.2508 0.1318,-2.4162 1.0543,-5.5351 -0.7908,-7.9952 -1.3617,-1.8889 -4.0414,-1.845 -6.2379,-1.5375 -2.6357,0.7467 -4.964,2.2405 -6.8529,3.8219 -2.6357,-3.6463 -8.0391,-5.1837 -12.432,-4.3491 3.9535,-4.2612 3.5143,-13.662 1.6253,-20.0757 -1.2739,0.1758 -4.1733,0.615 -7.3801,1.0105 -0.0439,0 -0.5272,-0.7469 -0.8347,-1.2301 1.1861,-1.9767 1.8452,-4.4808 1.318,-7.2484 -2.1966,-1.1861 -5.1398,-1.0981 -7.7317,-0.3075 -1.0982,0.3075 -2.0207,2.1087 -2.0207,3.3826 -0.1317,1.4936 0.7469,3.9976 2.0646,5.0959l-0.1756 0.3953 -6.0183 -2.4161c-0.2197,-2.504 -0.4833,-5.008 -0.7468,-7.5119 0,0.0439 0.3075,-0.703 0.9225,-0.2636 0.3075,0.9225 0.8786,2.5039 1.23,3.3386 0.4392,0.2636 0.7908,0.1757 1.1422,-0.1318l0.6589 -3.734 18.011 0c2.3722,-0.5272 4.349,-1.1861 6.7212,-1.8889 0.3075,-0.3515 0.1758,-0.6151 -0.0878,-0.9226l-6.897 -1.9328 -17.8791 0.5711 -1.1861 -3.5582c-0.3516,-0.3077 -0.7908,-0.3955 -1.2301,0l-0.7468 3.3824c-0.0878,0.4394 -0.4393,0.4394 -0.9663,0.3514 -0.8786,-0.8786 -3.2509,-0.5711 -4.2173,0.9227 -0.5711,-0.3077 -1.6694,-0.3077 -2.2844,0.2634 -0.5272,0.7469 -0.5711,1.4058 -0.1317,2.2843 0.7467,0.7908 1.3617,0.7908 2.2843,0.5711l0.4832 0.703 -0.3514 10.9822c2.9871,1.2741 6.765,3.0312 9.7083,4.349 -0.2195,2.3283 0.2197,5.1837 0.7029,7.2923 -0.4832,0.2636 -0.9665,0.4393 -1.4057,0.4393 -0.2197,0 -1.2739,-0.7468 -2.1086,-0.7907 -3.6901,-5.8865 -10.4552,-9.7523 -16.6932,-9.5327 -0.2635,0.1318 -0.5711,0.0879 -1.0103,0.2636 -1.4497,-0.8786 -2.3722,-1.3178 -3.6462,-1.3178 0.0879,0.5271 0.1757,1.2739 0.3515,1.9768 -0.4833,-0.2636 -1.4057,-0.4833 -2.7237,0 1.7572,2.6358 2.8115,6.6332 3.5584,9.928 0.2634,1.3617 0.6589,3.3825 1.3178,5.0079 0.4833,1.1422 1.23,2.3283 2.6796,2.6797 1.0983,0.3075 3.0313,-0.2636 3.778,-1.4497 0.1318,1.4936 0.1318,3.3826 0.4393,5.1837l-0.3954 0.7028c-2.5478,-0.2636 -5.6668,-0.3514 -8.3026,-0.4831 -3.2068,1.6253 -6.9847,3.6021 -9.928,5.7546 -0.7469,2.5041 -1.23,4.6565 -1.6693,7.0287 1.186,-0.0439 3.3387,-0.1317 4.5247,-0.1317 -1.0982,1.3179 -1.1421,3.4265 -1.274,5.2715l5.4912 -0.5272c-0.2197,-0.9225 -0.615,-1.9769 -0.4833,-2.9872 2.1087,-1.9329 4.5248,-3.734 6.1942,-5.2276 2.8993,-0.0878 9.313,1.5375 13.2665,1.5375 -0.1317,0.3955 -0.6589,0.703 -1.0983,1.0105 -2.0207,1.3178 -3.3824,2.1964 -3.1627,6.1062 1.8889,-1.0105 3.646,-1.7572 5.5351,-2.4602 2.0646,-0.7028 5.2715,-0.6589 4.8321,-2.7235 4.4368,0.4393 8.7419,1.1421 13.5303,0.3075 1.8889,2.0207 4.876,4.349 4.6565,7.1605 -0.1758,3.5582 -3.9537,7.8193 -4.964,12.388l-68.354 0 0.1317 -77.8866 117.599 0.0439 0 77.8866 -35.3192 0zm-7.7755 -0.0878c-0.8347,-1.9769 -0.3953,-2.8994 0.9225,-3.119 0.8347,-3.5583 2.0208,-7.1604 3.9537,-10.3673 -0.3514,-0.659 -0.7469,-1.274 -1.0544,-2.4162 0.9225,0.7469 2.1527,1.7133 2.0208,3.6901 -0.1756,4.7004 -3.8218,7.7756 -4.2171,12.2563 -0.615,0 -0.6591,0.0439 -1.6255,-0.0439z"/>
   <path id="_146219768" class="fil2" d="M108.303 166.432c0,-0.3514 -0.1318,-1.8011 0.0439,-1.8452 1.0104,-0.1756 2.7676,-0.4392 3.6462,-1.6253 0.4392,1.0103 -0.0439,1.845 -0.8786,2.46 -0.703,0.4833 -2.1087,0.9666 -2.8115,1.0105zm-3.167 1.1921c-0.8786,-0.1318 -0.615,-1.8012 0.3954,-1.4057 0.8786,0.2636 0.4831,1.6253 -0.3954,1.4057zm-13.1686 1.3638c-1.1422,-0.4832 -0.3955,-1.7572 0.4831,-1.4497 1.0983,0.3955 0.4833,1.889 -0.4831,1.4497zm14.0951 0.4312c-1.7572,-0.3075 -3.075,-2.3282 -3.075,-4.2171 1.1861,-0.1758 2.7675,-0.2197 4.0855,-0.3516l0 4.6126 -1.0105 -0.0439zm-16.0342 1.318c0,-0.9227 0.0441,-1.7574 0,-2.8994 -0.0439,-0.7907 0.1319,-1.4496 1.0105,-1.5376 0.8786,-0.0878 2.416,-0.1756 3.7779,-0.2636 -0.0439,3.1629 -1.274,4.7006 -4.7884,4.7006zm18.3186 4.5246l0 -7.5998c1.7132,-0.2635 2.6357,-0.571 3.6901,-1.4496l0 6.809c-0.3953,1.4057 -1.933,1.7571 -3.6901,2.2404zm0.2196 2.6357c-0.0878,-0.3514 -0.1317,-1.0982 -0.0878,-1.4935 1.3178,-0.2636 2.5478,-0.615 3.69,-1.5814 0.3955,0.527 0.4833,1.2739 0,1.7572 -1.0981,0.7906 -1.9328,1.0981 -3.6022,1.3177zm-10.3031 5.5453c-0.7469,-0.3075 -2.5041,0.4831 -2.8994,-0.8786 0.1758,-1.7572 1.7133,-1.5815 2.8116,-1.8011 -0.1319,-1.274 -0.8347,-2.3282 1.0103,-2.7676 1.4935,0.1319 0.9225,1.4058 1.0543,2.3283 0.9664,0.0439 2.6358,-0.1758 2.6797,1.2739 0.0439,1.4496 -1.3619,1.0104 -2.4161,1.4496 0.0439,1.2741 0.4392,2.8994 -0.7907,3.0752 -1.7572,0.1757 -0.9664,-1.9769 -1.4497,-2.6797zm10.4789 2.4939l-0.1758 -6.8531c1.0544,-0.0439 2.5041,-0.4832 3.2947,-0.9664l0.088 6.0182 -3.2069 1.8013zm-8.9414 1.3718c-1.4497,0.2197 -2.3722,-1.4057 -2.46,-2.8554 -1.9769,0.088 -2.9873,-0.3953 -3.119,-2.1086 -0.1317,-1.7132 1.7571,-2.3721 2.7676,-2.5479 -0.5711,-2.3722 1.7131,-3.3825 3.5582,-2.5039 0.4832,0.4831 0.7467,1.3617 0.7028,2.2403 1.4936,0.088 2.5919,0.4394 2.6358,2.1526 0.1758,1.4497 -1.1861,2.0647 -2.3283,2.0647 0,1.7133 -0.3075,3.3385 -1.7571,3.5582zm9.2489 9.9179l-0.0879 -7.6437c0.3954,0.0878 0.571,-0.0439 0.7907,0.615 0.1319,0.3516 0.9225,0.4833 1.6255,0.7908 0.3953,0.5711 0.9225,0.615 1.3617,0.7028 -0.0439,0.7908 0,2.9434 0,3.822 0,1.0981 -2.9872,1.7571 -3.69,1.7131zm-20.1637 1.3179c-0.2634,-0.3953 -0.6588,-0.615 -1.142,-1.0104l0.0878 -31.629c0,-0.9225 0.1757,-1.5375 0.7908,-1.5816 2.8114,-0.2634 6.6771,-0.6589 9.884,-1.142 3.2948,-0.4833 7.2922,-0.8347 10.6748,-1.3179 0.2636,-0.3075 0.1758,-0.615 -0.1757,-0.9225l-21.1739 2.4599c-0.571,0.2636 -1.0982,0.7469 -1.0982,0.9666 0,0.527 -0.0878,2.0208 -0.0878,2.46 0,10.4991 -0.0439,20.3832 -0.1319,30.2673l-1.23 -0.2636c-0.1758,-9.8841 -0.0878,-21.3935 -0.0878,-32.0684 0,-0.615 -0.088,-1.6694 0.0878,-2.0647 0.1758,-0.3953 1.23,-0.3953 1.23,-0.3953 7.3362,-0.7468 14.892,-1.8012 22.2722,-2.7237 0.3514,-0.1317 0.3075,-0.5711 -0.1318,-0.8347 -7.2484,0.7908 -15.8585,1.4497 -22.8871,2.2844 -0.2636,0 -1.318,0.1758 -1.6694,0.6589 -0.3514,0.4833 -0.3075,1.4937 -0.3075,1.8451 0,10.9383 0.3953,22.2282 0.1317,33.2984l-1.0103 0c-0.0439,-11.2899 -0.1757,-25.523 -0.1757,-35.1874 0,-1.0103 0.3515,-1.9328 1.8451,-2.0208 9.0933,-0.7906 14.7162,-1.0542 22.0524,-1.9767 2.1526,0 4.0415,0.2196 5.052,1.8011 0.7906,0.9225 0.3075,2.6797 -1.0983,3.2946 -0.8786,0.3954 -1.8011,0.5272 -2.8554,0.6589 -5.7548,0.6591 -11.5094,1.318 -17.2642,1.9769 -0.8347,0.1319 -1.2741,0.703 -1.4936,1.5815l-0.088 31.5851zm16.8549 0.4793c-0.9666,-0.5711 -0.2197,-1.9769 0.8346,-1.4497 0.8786,0.3953 0.2636,1.9768 -0.8346,1.4497zm3.3966 0.7507l-0.0439 -1.1421c1.4058,-0.1757 2.8555,-0.7029 3.9976,-1.6253 0.3075,0.7906 -0.2636,1.4496 -0.6151,1.7132 -0.527,0.4831 -2.6358,1.0542 -3.3386,1.0542zm-4.964 0.5272c-0.0878,-2.3722 0.3514,-4.1732 3.5144,-5.0518 0.1317,0.0439 0.2196,4.5246 0.2196,4.6124 -1.0982,0.2636 -2.5479,0.3077 -3.734,0.4394zm-12.2022 -0.0061c-1.0543,-0.5272 -0.5272,-2.1525 0.7028,-1.7572 1.0544,0.4833 0.4394,2.1527 -0.7028,1.7572zm4.3828 1.0164c-0.0439,-1.6253 -0.6589,-3.7779 -2.1525,-4.7882 -1.0104,-0.7469 -2.6798,-1.1861 -3.9537,-1.0544l-0.1756 -23.6778c3.5143,0.0439 6.0182,-1.6694 5.8426,-5.8865l5.8865 -0.6589c-0.0439,2.8993 2.1524,5.4471 5.3154,5.4471l0.6589 23.2386c-3.8658,1.0983 -5.0957,3.2069 -4.8322,6.6334l-6.5894 0.7467zm-4.7443 0.3516c-0.5711,0 -1.0544,-0.2636 -1.3619,-0.9666l0 -4.2171c1.2739,0 2.3283,0.3514 3.2508,1.0542 0.9665,0.8787 1.6693,2.0207 1.6693,3.8659 -1.1422,0.1317 -2.4161,0.2636 -3.5582,0.2636zm44.4124 -11.4218c-1.3178,-2.1085 -2.1086,-4.6124 -2.1525,-7.0725 0.7468,-0.7468 1.9769,-1.7133 3.3825,-2.2405 0.3077,2.504 0.3077,6.3259 -0.2195,8.786 -0.1758,0.7906 -0.615,0.7467 -1.0105,0.527zm2.2844 -0.5711c1.2739,-4.4368 0.4832,-12.1244 -1.6694,-17.7473 1.933,-0.3075 3.9537,-0.659 5.7548,-1.186 1.889,1.7571 2.7235,5.8865 2.8554,8.2147 0.8786,-1.0983 0.9225,-1.8451 1.0103,-3.4704 -0.2636,-1.5375 -1.2739,-3.734 -2.3282,-5.4912 1.5815,-0.7028 3.7779,-1.9329 5.4472,-2.5479 1.7133,-0.6589 4.1294,-1.1422 5.0959,-1.6253 -0.6151,-0.4833 -2.3723,-0.1319 -3.3826,0 4.0854,-2.7677 9.4888,-4.9201 14.3209,-6.4137 -0.2196,-0.8347 -2.7235,0 -3.5582,0 2.2843,-1.7572 4.2612,-4.2612 5.2276,-6.5895 0.5711,0.0878 1.0983,0.0439 1.6253,0.0439 0,7.6878 -2.5917,17.8794 -5.2715,23.1948 -0.615,0.5272 -0.8347,0.6589 -1.6692,0.9664 -2.4601,1.0104 -3.7779,0.9225 -6.3698,1.7571 -0.5272,0.2636 -1.2301,0.4833 -1.3618,0.8786 1.801,0 3.6462,-0.3075 5.2715,-0.7028 -0.7908,0.4831 -1.3619,0.9664 -1.8889,1.23 -5.9306,3.4704 -12.8274,6.9409 -19.1093,9.4886zm-24.864 1.2741c-0.2196,-0.0439 -0.615,0.0878 -0.8346,-0.3953 0.9664,-0.5272 3.9976,-1.4058 5.579,-2.1966 1.6693,-0.7468 2.7676,-1.4935 4.3051,-2.5479 0.1317,-0.2636 0.0439,-0.6589 -0.5272,-0.5272 -1.4058,0.8786 -2.548,1.3619 -4.0415,2.1087 -2.1964,1.0103 -3.8219,1.6253 -5.9304,2.2403 -0.615,0.1319 -1.2741,-0.0439 -1.4058,-0.3514 0.2197,-0.1317 -0.0878,-0.2636 0.6589,-0.615 0.9225,-0.4832 3.4704,-1.3178 5.2276,-2.2404 1.7133,-0.8786 3.0751,-1.6253 4.4809,-2.6797 0.1317,-0.3514 -0.0441,-0.571 -0.5272,-0.3953 -3.4265,2.0647 -6.0623,3.163 -9.8841,4.5686 -0.5272,0.1757 -1.2741,0.3076 -1.6255,0.1318l0 -0.9224 5.0959 -2.6797c1.5375,-0.7469 2.7236,-1.4937 4.305,-2.6798l3.9098 -3.4264 0 -0.5711c-2.7236,0.4392 -5.667,1.2739 -8.7859,0l0 -0.3954c1.4936,-0.3953 3.1189,-0.615 4.5686,-1.0103 2.4601,-0.6589 4.7445,-1.8011 7.468,-2.4161 2.9872,-0.4394 6.7651,-0.4833 10.0599,-0.8347 0.8786,1.7133 1.4056,3.7779 1.5375,6.6773 -5.8426,2.3721 -9.7963,9.1372 -16.6931,10.0597 1.6253,-0.7908 2.9871,-1.7572 3.7779,-2.3282 0.0439,-0.3075 -0.1319,-0.3953 -0.4394,-0.3953 -2.4599,1.3178 -3.9976,2.416 -6.3258,3.031l-3.9536 0.7908z"/>
   <path id="_145853696" class="fil3" d="M73.8627 129.487c0.4392,-1.6255 0.615,-3.5143 1.2739,-4.8762 2.4162,-1.8889 5.8865,-3.8657 9.0055,-5.2276 2.6797,-0.0878 5.2276,0 7.6878,0.3955 -0.1758,0.7467 -0.3077,1.4935 -0.3955,2.416 -2.3283,-0.1757 -4.5686,-0.3514 -7.0287,-0.3514 -2.3721,0.7906 -5.0957,2.1525 -7.2483,3.9536 -0.3514,1.3179 0.1757,2.2843 0.3954,3.6023 -0.8786,0.0878 -2.5479,0.0439 -3.6023,0.0878l-0.0878 0zm3.0311 5.1398c-0.0439,-1.6255 0.5272,-2.9873 1.0543,-4.0415 1.6694,-1.7133 3.8219,-3.6462 5.3594,-5.0959 0.571,-0.615 1.274,-1.3617 2.1087,-1.9328l9.6205 -0.6591 0.0439 -0.3075c-0.615,-0.3953 -1.7572,-0.3075 -2.4601,-0.3075l0.1318 -1.0982c2.5919,-1.1861 5.5351,-1.4936 8.3026,-1.6692 -0.0439,2.3721 0.088,5.4471 -0.3075,7.7754 -3.5143,0.659 -10.0158,-1.4057 -14.1012,-1.3178l-6.9409 5.535c-0.4833,0.7908 -0.1758,1.9328 0,2.8116 -0.7028,0.1317 -1.6254,0.2195 -2.8115,0.3075zm16.0781 -14.6286c0,-0.6589 0.3954,-1.1861 0.7468,-1.8011 2.1086,-1.0103 4.9201,-1.3617 7.0287,-1.1861 0.1319,0.5711 0.2197,0.9225 0.2636,1.4497 -2.7236,0.2197 -5.4032,0.5272 -8.0391,1.5375zm9.2252 -1.6692c-0.0878,-0.615 -0.1756,-0.9666 -0.2197,-1.7572 0.4833,-0.3954 0.8786,-0.7029 1.3618,-0.9665l3.4266 2.5918c0.0439,0.1319 0,0.3514 -0.0439,0.4833 -1.2741,-0.0878 -3.2948,-0.2636 -4.5248,-0.3514zm-7.5559 -1.889c2.1966,-3.778 6.0623,-6.8529 10.5871,-8.742 -0.1758,1.4497 0.4392,2.1086 1.3617,3.1191l-3.3825 3.3824 -2.1965 1.6255c-2.1964,-0.0879 -3.9537,0.1757 -6.3698,0.615zm-1.0542 -0.7029c-0.1758,-1.274 -0.1758,-2.6357 -0.3075,-3.8658 2.5478,-2.0647 7.1604,-4.8761 11.0261,-5.579 0.3075,0 0.3955,0.2196 0.703,0.2196 -5.6231,2.4161 -9.0494,5.7987 -11.4216,9.2252zm-4.2173 -2.9873c-1.7132,0 -2.4599,-1.142 -2.7235,-2.5038 1.186,-0.3075 3.6899,-0.8347 5.0518,-0.5711 0.2636,1.801 -0.615,3.0749 -2.3283,3.0749zm3.3826 -2.0206c0.2196,-1.274 -0.3075,-2.5918 0.2636,-4.1294 0.9664,-2.46 1.3617,-5.0958 -1.4937,-6.8529 -0.6589,-0.3075 -1.3617,-0.4394 -2.1086,-0.5272 -0.0878,-0.7908 -0.0878,-1.6694 -0.2197,-2.4161 3.0752,-0.1319 7.5559,1.6253 10.0599,3.8219 1.5375,1.2299 2.8994,2.8115 3.9976,4.7004 -0.3075,0.0439 -1.0104,0.2196 -1.7571,0.4832 -1.2741,-2.1087 -3.8659,-5.1836 -6.5456,-5.9305l0.4394 1.0983c2.1964,1.3618 3.4704,2.7235 4.7882,5.2275 -2.46,1.0103 -5.0957,2.46 -7.424,4.5248zm-6.4575 -1.889l-1.7572 -7.2484c0.7467,-0.7028 2.7675,-1.1421 3.8218,-1.1421l1.0103 7.9952c-0.6589,0.1317 -1.9768,0.3514 -2.8993,0.5711l-0.1756 -0.1758zm4.0854 -0.4392l-0.8347 -7.7755c1.4936,0.1317 2.6358,0.8785 2.9872,1.8888 0.7028,1.318 -0.9664,4.4809 -0.7908,5.9745l-1.3617 -0.0878zm-3.7779 -4.349c-0.1758,-0.3955 -0.3075,-0.8786 -0.088,-1.318 0.3955,-0.3075 0.5272,-0.0878 0.9225,0 0.3076,0.4394 0.4393,0.7469 0.2197,1.23 -0.0878,0.3955 -0.5711,0.3516 -1.0542,0.088zm-2.3724 -3.6023l-0.6589 -1.3617c-0.9224,-1.4938 -0.4392,-1.1861 -1.186,-2.0208 0.6589,-0.0439 1.6693,0.527 2.504,1.0542 -0.1758,-0.9664 -0.3514,-1.7571 -0.4394,-2.5918 0.7908,0.1758 1.7133,0.615 2.1527,1.4937 0,0 0.6589,-0.088 1.4056,-0.1319 0.1757,0.8786 0.1757,1.4497 0.2636,2.2844 -1.0982,0.1317 -3.163,0.5272 -4.0416,1.2739zm12.7396 33.6938c0.2197,-1.7572 1.23,-2.5918 2.416,-3.4265 0.6152,-0.3075 1.3619,-0.6589 2.0208,-1.2739 0.8786,-2.2405 0.8786,-6.5017 0.9226,-9.9719 0.9664,0.0878 3.4264,0.2634 4.5247,0.3075 0.3514,2.9871 -1.3619,5.4032 -1.7133,7.9511 -0.2636,1.9769 -0.0439,2.1964 0,2.8555 0.088,0.9224 -1.8011,1.1421 -2.9432,1.3617 -1.7572,0.571 -3.4265,1.186 -5.2276,2.1965zm10.543 -16.6931l-3.2069 -2.6357c2.6799,-3.0752 6.1942,-5.6231 10.9824,-7.4681 0.615,1.1422 1.6255,2.2405 2.4601,3.2508 -0.3954,0.8346 -1.4496,1.5815 -3.5584,2.1524 -2.5477,1.318 -5.6668,4.1734 -6.6772,4.7006zm13.4425 -6.1062c-4.3931,-2.2404 -7.7316,-10.8945 -7.9074,-16.8688l9.8841 -1.4936c1.3618,3.6021 2.0207,14.9798 -1.9767,18.3624zm-13.4425 -1.274c-0.7906,-0.7906 -1.8011,-2.2844 -0.615,-2.8555l7.1605 -2.5916c0.2197,0.571 0.5272,1.0103 0.8786,1.6692 -2.7235,0.9224 -5.1398,2.4601 -7.4241,3.7779zm11.817 -2.8555c0.1317,-0.7906 -0.0878,-2.1963 -0.0878,-3.2068 -0.615,0.2197 -0.9665,0.3077 -2.1526,0.5711l-0.3514 -1.6253c0.7028,-0.0878 1.5814,-0.1319 2.2843,-0.3514 -0.0878,-0.9665 -0.2636,-1.8012 -0.4393,-3.0312 -0.3953,0 -1.5814,0.3075 -2.3722,0.4394l-0.2197 -1.4497c1.0105,-0.088 1.6694,-0.2197 2.3283,-0.3075 -0.1756,-1.0544 -0.3075,-1.9769 -0.6589,-3.119 0.3075,-0.1318 1.3179,-0.1758 1.6693,-0.3075 0.0439,1.3178 0.1758,2.1085 0.3953,3.2068 0.615,-0.2197 1.8011,-0.3514 2.3283,-0.4833 0.0439,0.5272 0.088,1.0544 0.1319,1.5377 -0.703,0.0878 -1.4058,0.1317 -2.1966,0.2195 0.2197,1.2301 0.3514,2.0647 0.5711,3.0751 1.0983,-0.3075 1.2741,-0.2636 2.0647,-0.4833l0.2636 1.6255c-0.615,0.1317 -1.23,0.1756 -2.1964,0.3075 0.1317,0.9225 0.3953,2.0647 0.5711,3.075 -0.4833,0.0879 -1.2302,0.3074 -1.933,0.3074zm-9.928 -2.416c-0.3954,-1.5375 -0.7468,-3.7779 -0.6589,-5.4912 1.3178,-0.2195 2.3283,-0.4392 3.5583,-0.7467 0.2636,1.6693 0.7467,3.3385 1.2299,4.8762 -0.9224,0.3075 -2.8115,1.0542 -4.1293,1.3617zm-0.7468 -6.7212c0.0879,-1.7132 0.4832,-3.5143 1.6693,-5.0518 1.845,-2.3722 2.1086,-6.0184 0.4833,-8.4344 1.5375,-0.4394 3.5143,-0.3514 5.0957,0.1756 0.2636,2.0207 0.1758,4.437 -1.4058,6.7652l0.9666 1.4497c-0.9227,0.1756 -2.504,0.3953 -3.734,0.5711 -0.0878,1.1422 0.1317,2.8993 0.3075,3.9096 -0.6589,0.1758 -2.4602,0.615 -3.3826,0.615zm-9.5767 -4.9201c0,-3.646 0.1319,-7.2922 0.2636,-10.8505 -1.6692,-1.23 -0.8785,-3.7779 1.4497,-3.5143 0.8786,0.1317 1.4058,1.0982 1.4058,1.9768 -0.0878,0.615 -0.3514,1.1861 -0.8347,1.6253 0.1319,1.6255 0.4833,6.0184 0.6591,8.6102l6.6332 2.6797c-0.615,1.0983 -0.8347,2.1525 -0.9664,3.2507l-8.6103 -3.7779zm10.8068 -1.5375c-1.2741,-1.0543 -1.7133,-3.5582 -1.5376,-5.1398 0.0439,-0.6149 0.615,-1.5374 1.3179,-1.4496 1.2739,0.615 1.5375,5.7548 0.2197,6.5894zm-4.9642 -6.6333l-1.0542 -3.5583 -0.6589 0c0.2196,-0.8346 0.3075,-1.4057 -0.2197,-2.504l0.7468 -0.1317 0.6151 -3.6901 0.9664 3.7779 18.8017 -0.615 5.2715 1.4497 -5.1836 1.3179 -18.7579 0.0878 -0.5272 3.8658zm-8.61 -3.9536c-0.3953,-0.2636 -0.3075,-0.7029 -0.0878,-1.0543 0.2636,-0.2636 0.615,-0.4394 1.0542,-0.1318 0.3075,0.3075 0.3075,0.7468 0.1318,1.1421 -0.2635,0.3076 -0.7468,0.3954 -1.0982,0.044zm17.0006 44.8957l-2.8555 -2.8554c-0.4831,0.8786 -1.142,2.3283 -1.801,3.2947 -0.3075,-0.5711 -0.9664,-1.4936 -1.4497,-2.2403 0.659,-1.933 0.8347,-2.9873 0.5711,-5.4912 0.9225,-0.7908 4.0415,-3.4265 6.7211,-4.7445 2.2405,-0.7906 3.7341,-1.5375 4.1734,-2.5039 0.3075,0.3075 1.0103,0.7908 1.5375,1.1861 -0.9225,1.6253 -4.2173,3.6901 -7.0726,4.3051 0.4832,0.3514 1.6253,0.3514 2.5039,0.3075 -1.4497,2.5919 -2.1525,5.2715 -2.3282,8.7419zm15.4192 24.6004c0.1757,-2.9872 1.889,-4.7443 2.9432,-7.3801 1.318,-3.2946 1.4497,-6.6772 0.088,-8.3905 -2.9434,-2.3283 -5.3156,-4.7882 -8.3906,-7.424 -0.3514,-0.088 -0.7029,-0.3954 -1.0543,-0.3076 -0.3514,0.0879 0.5272,1.274 0.9665,1.4496 -5.623,2.3723 -11.1581,1.6694 -17.0446,0.9666 -0.0439,-1.3619 -0.0439,-2.4601 0.4394,-3.7779 0.7906,0.9224 1.142,1.5374 1.6692,2.9432 0.7907,-0.703 1.801,-2.6797 2.3721,-3.5582l3.5584 3.646c0.1756,-2.3721 0.7028,-6.6333 1.5375,-8.3025 2.5039,0.615 5.1837,1.0103 7.7315,1.2738 0.3515,1.4497 -0.2635,3.8658 1.0543,3.8658 1.318,0.044 0.6589,-2.8994 0.5711,-3.8658 1.1861,0.1758 2.8115,0.1319 4.1293,0.1319 0.3075,1.3617 0.0879,3.6022 1.23,3.5583 1.1861,-0.0439 0.5272,-2.5919 0.4833,-3.6902 1.1861,-0.1757 2.3722,-0.1757 3.734,-0.6149 -2.1965,4.4807 -1.3179,10.4551 1.8011,13.4862l-3.5582 12.3002c-1.23,0.3954 -1.4497,1.5376 -0.6589,3.6901 -0.7908,0.0439 -2.6799,0.0439 -3.6023,0zm-7.9512 0.0439c0.8347,-4.7882 7.0287,-10.4552 4.0854,-15.8584l-3.5143 -4.1293c0.8347,-0.2636 2.0207,-0.6591 2.8993,-1.1422l3.8658 3.8218c0.2197,1.3178 0.8346,2.8994 1.3618,3.7779 -1.7132,2.8555 -3.119,7.0287 -3.6462,9.7523 -1.2739,0.3075 -1.845,1.3618 -1.0983,3.8218 -0.9663,0 -2.9871,-0.0439 -3.9535,-0.0439zm-4.4807 -31.4534c0.0878,-0.527 0.5709,-1.5814 1.0103,-2.4161 1.3179,-0.6149 2.416,-1.4057 3.3385,-2.3282 1.2302,1.1422 2.3283,3.9096 2.5041,5.7987 -2.1525,-0.0878 -4.5687,-0.4394 -6.8529,-1.0544zm8.4342 1.0983c-0.3953,-2.2844 -1.3617,-4.7882 -2.8991,-7.2045 1.3178,-0.4831 3.2068,0.3955 4.261,1.4497 1.4936,1.4058 2.3283,3.6023 2.8115,5.7987 -0.7907,-0.0439 -3.119,0.0439 -4.1734,-0.0439zm19.329 8.7858c-0.571,-1.0542 -1.2299,-1.4497 -1.801,-2.1086 -1.7133,-1.8449 -1.0983,-4.7443 -0.1319,-7.468 0,-1.1422 -0.5711,-2.2403 -1.845,-2.2403 -3.2946,0.5272 -6.194,3.2947 -9.4888,3.0311 -1.1422,-2.3722 -1.8011,-6.1062 -4.964,-7.512 4.3929,0.5272 7.2484,2.8994 8.7419,5.1837 2.8555,-2.4599 6.282,-5.4032 10.3674,-4.2612 1.4497,0.4833 2.2844,1.5377 2.5919,3.1191 0.2636,2.504 -1.2741,5.7108 1.3617,7.9072 -1.0542,0.5711 -2.3283,-0.9225 -3.3825,-0.5711 0.7028,0.8347 1.0103,1.5377 1.1861,2.7237 -0.7469,-0.5711 -1.7133,-0.9225 -2.8993,-0.9665 0.1757,0.8347 0.7028,1.5376 0.3074,3.0751l-0.0439 0.0878z"/>
  </g>
 </g>
</svg>
